<svg xmlns="http://www.w3.org/2000/svg" xmlns:xlink="http://www.w3.org/1999/xlink" width="512" zoomAndPan="magnify" viewBox="0 0 384 383.999986" height="512" preserveAspectRatio="xMidYMid meet" version="1.0"><defs><clipPath id="a3f0011709"><path d="M 108 12.347656 L 324 12.347656 L 324 216 L 108 216 Z M 108 12.347656 " clip-rule="nonzero"/></clipPath><clipPath id="d1e9f8b9f1"><path d="M 263 215 L 324 215 L 324 371.597656 L 263 371.597656 Z M 263 215 " clip-rule="nonzero"/></clipPath><clipPath id="f554519b54"><path d="M 108 215 L 169 215 L 169 371.597656 L 108 371.597656 Z M 108 215 " clip-rule="nonzero"/></clipPath><clipPath id="b0ab9b053a"><path d="M 156 227 L 276 227 L 276 371.597656 L 156 371.597656 Z M 156 227 " clip-rule="nonzero"/></clipPath></defs><g clip-path="url(#a3f0011709)"><path fill="#ffffff" d="M 323.738281 18.335938 C 323.738281 15.027344 321.054688 12.347656 317.75 12.347656 C 297.402344 12.347656 284.765625 25.910156 279.449219 33.1875 C 263.570312 27.234375 242.890625 24.324219 215.949219 24.324219 C 189.007812 24.324219 168.332031 27.234375 152.453125 33.1875 C 147.132812 25.917969 134.496094 12.347656 114.148438 12.347656 C 110.84375 12.347656 108.160156 15.027344 108.160156 18.335938 C 108.160156 39.59375 112.652344 64.90625 113.933594 71.695312 C 110 82.410156 108.160156 94.050781 108.160156 108.160156 C 108.160156 152.214844 146.546875 215.949219 215.949219 215.949219 C 285.355469 215.949219 323.738281 152.214844 323.738281 108.160156 C 323.738281 93.992188 321.902344 82.34375 317.96875 71.691406 C 319.246094 64.886719 323.738281 39.585938 323.738281 18.335938 Z M 215.949219 203.972656 C 154.257812 203.972656 120.136719 147.324219 120.136719 108.160156 C 120.136719 94.871094 121.910156 84.144531 125.714844 74.410156 C 126.132812 73.34375 126.234375 72.183594 126.007812 71.054688 C 125.957031 70.785156 121.167969 46.636719 120.277344 24.917969 C 130.425781 26.917969 137.410156 33.53125 141.265625 38.277344 C 138.371094 39.894531 135.625 41.617188 133.136719 43.535156 C 130.519531 45.558594 130.042969 49.316406 132.066406 51.933594 C 134.089844 54.550781 137.851562 55.035156 140.46875 53.007812 C 155.210938 41.609375 179.199219 36.300781 215.949219 36.300781 C 252.710938 36.300781 276.703125 41.609375 291.445312 53.019531 C 292.535156 53.863281 293.824219 54.269531 295.105469 54.269531 C 296.894531 54.269531 298.660156 53.472656 299.847656 51.945312 C 301.871094 49.332031 301.390625 45.570312 298.773438 43.546875 C 296.289062 41.625 293.542969 39.90625 290.644531 38.277344 C 294.523438 33.550781 301.542969 26.929688 311.621094 24.921875 C 310.726562 46.625 305.941406 70.785156 305.894531 71.054688 C 305.667969 72.183594 305.769531 73.351562 306.1875 74.421875 C 310.042969 84.210938 311.761719 94.621094 311.761719 108.160156 C 311.761719 147.320312 277.640625 203.972656 215.949219 203.972656 Z M 215.949219 203.972656 " fill-opacity="1" fill-rule="nonzero"/></g><g clip-path="url(#d1e9f8b9f1)"><path fill="#ffffff" d="M 303.0625 324.570312 C 306.851562 315.527344 311.761719 299.269531 311.761719 275.832031 C 311.761719 236.648438 274.125 217.378906 272.523438 216.578125 C 269.558594 215.089844 265.976562 216.300781 264.496094 219.246094 C 263.019531 222.199219 264.210938 225.800781 267.15625 227.289062 C 267.480469 227.449219 299.785156 244.132812 299.785156 275.832031 C 299.785156 309.195312 288.910156 326.257812 288.816406 326.402344 C 287.589844 328.238281 287.472656 330.597656 288.515625 332.550781 C 289.558594 334.496094 291.589844 335.714844 293.796875 335.714844 C 311.761719 335.714844 311.761719 344.726562 311.761719 347.691406 C 311.761719 355.554688 302.726562 359.667969 293.796875 359.667969 L 287.808594 359.667969 C 284.503906 359.667969 281.820312 362.351562 281.820312 365.65625 C 281.820312 368.960938 284.503906 371.644531 287.808594 371.644531 L 293.796875 371.644531 C 311.144531 371.644531 323.738281 361.570312 323.738281 347.691406 C 323.738281 335.359375 316.167969 327.113281 303.0625 324.570312 Z M 303.0625 324.570312 " fill-opacity="1" fill-rule="nonzero"/></g><g clip-path="url(#f554519b54)"><path fill="#ffffff" d="M 144.089844 359.667969 L 138.101562 359.667969 C 129.175781 359.667969 120.136719 355.554688 120.136719 347.691406 C 120.136719 344.726562 120.136719 335.714844 138.101562 335.714844 C 140.300781 335.714844 142.3125 334.496094 143.359375 332.5625 C 144.40625 330.628906 144.300781 328.269531 143.101562 326.429688 C 142.988281 326.257812 132.113281 309.195312 132.113281 275.828125 C 132.113281 244.132812 164.421875 227.449219 164.730469 227.292969 C 167.691406 225.808594 168.894531 222.214844 167.410156 219.257812 C 165.929688 216.300781 162.34375 215.097656 159.378906 216.574219 C 157.773438 217.378906 120.136719 236.648438 120.136719 275.828125 C 120.136719 299.265625 125.046875 315.527344 128.839844 324.566406 C 115.730469 327.113281 108.160156 335.359375 108.160156 347.6875 C 108.160156 361.570312 120.753906 371.640625 138.101562 371.640625 L 144.089844 371.640625 C 147.394531 371.640625 150.078125 368.957031 150.078125 365.652344 C 150.078125 362.347656 147.394531 359.667969 144.089844 359.667969 Z M 144.089844 359.667969 " fill-opacity="1" fill-rule="nonzero"/></g><path fill="#ffffff" d="M 114.148438 281.820312 C 114.148438 278.515625 111.464844 275.832031 108.160156 275.832031 C 108.125 275.832031 104.054688 275.550781 100.300781 271.050781 C 95.992188 265.890625 89.722656 252.015625 96.089844 217.019531 C 99.144531 200.222656 91.171875 190.179688 82.472656 187.953125 C 74.847656 185.976562 64.730469 189.582031 60.558594 202.078125 C 59.511719 205.214844 61.214844 208.605469 64.351562 209.65625 C 67.488281 210.707031 70.878906 209 71.925781 205.863281 C 73.441406 201.3125 76.464844 198.785156 79.503906 199.550781 C 82.992188 200.449219 85.988281 205.625 84.304688 214.875 C 78.789062 245.226562 81.078125 266.703125 91.101562 278.722656 C 98.472656 287.550781 107.191406 287.808594 108.160156 287.808594 C 111.464844 287.808594 114.148438 285.125 114.148438 281.820312 Z M 114.148438 281.820312 " fill-opacity="1" fill-rule="nonzero"/><g clip-path="url(#b0ab9b053a)"><path fill="#ffffff" d="M 251.921875 324.070312 C 252.09375 308.53125 253.011719 264.777344 257.75 241.074219 C 258.402344 237.835938 256.300781 234.679688 253.054688 234.03125 C 249.789062 233.378906 246.652344 235.488281 246.011719 238.726562 C 241.015625 263.664062 240.113281 307.753906 239.945312 323.738281 L 239.902344 323.738281 C 236.597656 323.738281 233.914062 326.417969 233.914062 329.726562 C 233.914062 333.03125 236.597656 335.714844 239.902344 335.714844 L 245.890625 335.714844 C 263.855469 335.714844 263.855469 344.726562 263.855469 347.691406 C 263.855469 355.550781 254.820312 359.667969 245.890625 359.667969 L 239.902344 359.667969 C 230 359.667969 221.9375 351.605469 221.9375 341.703125 L 221.9375 233.914062 C 221.9375 230.605469 219.253906 227.925781 215.949219 227.925781 C 212.644531 227.925781 209.960938 230.605469 209.960938 233.914062 L 209.960938 341.703125 C 209.960938 351.605469 201.902344 359.667969 191.996094 359.667969 L 186.007812 359.667969 C 177.082031 359.667969 168.042969 355.554688 168.042969 347.691406 C 168.042969 344.726562 168.042969 335.714844 186.007812 335.714844 L 191.996094 335.714844 C 195.304688 335.714844 197.984375 333.03125 197.984375 329.726562 C 197.984375 326.417969 195.304688 323.738281 191.996094 323.738281 L 191.957031 323.738281 C 191.789062 307.753906 190.878906 263.664062 185.890625 238.726562 C 185.25 235.488281 182.117188 233.386719 178.847656 234.03125 C 175.601562 234.679688 173.5 237.835938 174.148438 241.074219 C 178.890625 264.777344 179.804688 308.53125 179.980469 324.070312 C 164.886719 325.828125 156.066406 334.378906 156.066406 347.691406 C 156.066406 361.570312 168.660156 371.644531 186.007812 371.644531 L 191.996094 371.644531 C 201.78125 371.644531 210.484375 366.925781 215.949219 359.648438 C 221.417969 366.925781 230.117188 371.644531 239.902344 371.644531 L 245.890625 371.644531 C 263.238281 371.644531 275.832031 361.570312 275.832031 347.691406 C 275.832031 334.378906 267.011719 325.828125 251.921875 324.070312 Z M 251.921875 324.070312 " fill-opacity="1" fill-rule="nonzero"/></g><path fill="#ffffff" d="M 254.875 90.195312 C 249.921875 90.195312 245.890625 94.222656 245.890625 99.175781 C 245.890625 104.128906 249.921875 108.160156 254.875 108.160156 C 259.828125 108.160156 263.855469 104.128906 263.855469 99.175781 C 263.855469 94.222656 259.828125 90.195312 254.875 90.195312 Z M 254.875 90.195312 " fill-opacity="1" fill-rule="nonzero"/><path fill="#ffffff" d="M 186.007812 99.175781 C 186.007812 94.222656 181.980469 90.195312 177.027344 90.195312 C 172.074219 90.195312 168.042969 94.222656 168.042969 99.175781 C 168.042969 104.128906 172.074219 108.160156 177.027344 108.160156 C 181.980469 108.160156 186.007812 104.128906 186.007812 99.175781 Z M 186.007812 99.175781 " fill-opacity="1" fill-rule="nonzero"/><path fill="#ffffff" d="M 254.621094 168.707031 C 251.675781 167.191406 248.070312 168.347656 246.554688 171.289062 C 245.527344 173.28125 241.527344 174.007812 239.902344 174.03125 C 232.613281 174.03125 225.058594 167.585938 222.726562 160.390625 C 233.269531 155.246094 239.902344 139.304688 239.902344 132.113281 C 239.902344 120.136719 226.621094 120.136719 215.949219 120.136719 C 205.277344 120.136719 191.996094 120.136719 191.996094 132.113281 C 191.996094 139.304688 198.632812 155.246094 209.171875 160.390625 C 206.84375 167.585938 199.285156 174.03125 191.996094 174.03125 C 191.148438 174.03125 186.570312 173.53125 185.273438 171.15625 C 183.683594 168.257812 180.050781 167.191406 177.144531 168.777344 C 174.246094 170.363281 173.175781 174 174.769531 176.90625 C 179.605469 185.75 190.746094 186.007812 191.996094 186.007812 C 201.296875 186.007812 210.289062 180.695312 215.949219 173.097656 C 221.609375 180.695312 230.601562 186.007812 239.902344 186.007812 C 241.183594 186.007812 252.574219 185.742188 257.203125 176.773438 C 258.71875 173.832031 257.5625 170.222656 254.621094 168.707031 Z M 215.949219 150.078125 C 211.007812 150.078125 204.613281 138.136719 204.015625 132.832031 C 206.273438 132.113281 212.007812 132.113281 215.949219 132.113281 C 219.890625 132.113281 225.632812 132.113281 227.882812 132.832031 C 227.304688 138.113281 220.898438 150.078125 215.949219 150.078125 Z M 215.949219 150.078125 " fill-opacity="1" fill-rule="nonzero"/></svg>