<svg xmlns="http://www.w3.org/2000/svg" xmlns:xlink="http://www.w3.org/1999/xlink" width="512" zoomAndPan="magnify" viewBox="0 0 384 383.999986" height="512" preserveAspectRatio="xMidYMid meet" version="1.0"><defs><clipPath id="adcce910f3"><path d="M 72 227 L 127 227 L 127 371.757812 L 72 371.757812 Z M 72 227 " clip-rule="nonzero"/></clipPath><clipPath id="087ebf2d15"><path d="M 257 227 L 312 227 L 312 371.757812 L 257 371.757812 Z M 257 227 " clip-rule="nonzero"/></clipPath><clipPath id="a42eedf303"><path d="M 132 251 L 252 251 L 252 371.757812 L 132 371.757812 Z M 132 251 " clip-rule="nonzero"/></clipPath><clipPath id="b7a35bbcc9"><path d="M 36 12.507812 L 348 12.507812 L 348 240 L 36 240 Z M 36 12.507812 " clip-rule="nonzero"/></clipPath></defs><path fill="#ffffff" d="M 93.597656 227.269531 C 96.527344 228.722656 100.105469 227.550781 101.589844 224.613281 C 103.082031 221.679688 101.902344 218.085938 98.976562 216.578125 C 98.109375 216.128906 77.621094 205.238281 72.253906 173.0625 C 71.820312 170.417969 69.671875 168.390625 66.996094 168.101562 C 64.261719 167.796875 61.796875 169.339844 60.796875 171.824219 C 47.816406 204.292969 72.296875 241.609375 73.34375 243.183594 C 74.492188 244.914062 76.394531 245.847656 78.320312 245.847656 C 79.457031 245.847656 80.613281 245.519531 81.636719 244.839844 C 84.382812 243.011719 85.128906 239.300781 83.304688 236.546875 C 83.15625 236.320312 73.027344 220.832031 69.902344 202.589844 C 79.746094 220.136719 92.824219 226.878906 93.597656 227.269531 Z M 93.597656 227.269531 " fill-opacity="1" fill-rule="nonzero"/><g clip-path="url(#adcce910f3)"><path fill="#ffffff" d="M 121.375 239.742188 C 124.613281 239.097656 126.71875 235.945312 126.074219 232.707031 C 125.421875 229.472656 122.304688 227.367188 119.03125 228.015625 C 107.023438 230.417969 84.304688 243.488281 84.304688 275.761719 C 84.304688 299.179688 89.210938 315.421875 93 324.457031 C 79.902344 327 72.339844 335.238281 72.339844 347.558594 C 72.339844 361.425781 84.921875 371.488281 102.253906 371.488281 L 108.238281 371.488281 C 118.15625 371.488281 124.257812 364.054688 124.917969 363.210938 C 126.953125 360.605469 126.492188 356.84375 123.882812 354.808594 C 121.28125 352.769531 117.515625 353.242188 115.488281 355.839844 C 115.457031 355.878906 112.417969 359.523438 108.238281 359.523438 L 102.253906 359.523438 C 93.332031 359.523438 84.304688 355.414062 84.304688 347.558594 C 84.304688 344.597656 84.304688 335.589844 102.253906 335.589844 C 104.449219 335.589844 106.460938 334.378906 107.507812 332.445312 C 108.554688 330.511719 108.445312 328.15625 107.25 326.316406 C 107.136719 326.144531 96.269531 309.097656 96.269531 275.761719 C 96.273438 245.421875 120.382812 239.960938 121.375 239.742188 Z M 121.375 239.742188 " fill-opacity="1" fill-rule="nonzero"/></g><g clip-path="url(#087ebf2d15)"><path fill="#ffffff" d="M 291 324.457031 C 294.789062 315.421875 299.695312 299.179688 299.695312 275.761719 C 299.695312 243.488281 276.976562 230.414062 264.96875 228.015625 C 261.726562 227.375 258.578125 229.464844 257.925781 232.707031 C 257.28125 235.945312 259.386719 239.097656 262.625 239.742188 C 263.652344 239.953125 287.726562 245.121094 287.726562 275.761719 C 287.726562 309.097656 276.863281 326.144531 276.765625 326.289062 C 275.546875 328.125 275.425781 330.488281 276.46875 332.433594 C 277.507812 334.375 279.539062 335.589844 281.746094 335.589844 C 299.695312 335.589844 299.695312 344.597656 299.695312 347.558594 C 299.695312 355.414062 290.664062 359.523438 281.746094 359.523438 L 275.761719 359.523438 C 271.632812 359.523438 268.59375 355.941406 268.472656 355.796875 C 266.433594 353.242188 262.707031 352.789062 260.117188 354.808594 C 257.507812 356.84375 257.046875 360.605469 259.082031 363.210938 C 259.738281 364.054688 265.84375 371.492188 275.761719 371.492188 L 281.746094 371.492188 C 299.082031 371.492188 311.660156 361.425781 311.660156 347.558594 C 311.660156 335.238281 304.097656 327 291 324.457031 Z M 291 324.457031 " fill-opacity="1" fill-rule="nonzero"/></g><g clip-path="url(#a42eedf303)"><path fill="#ffffff" d="M 228.902344 324.082031 L 239.78125 258.800781 C 240.324219 255.539062 238.121094 252.457031 234.863281 251.914062 C 231.589844 251.375 228.519531 253.570312 227.980469 256.824219 L 216.847656 323.625 L 215.933594 323.625 C 212.625 323.625 209.949219 326.304688 209.949219 329.609375 C 209.949219 332.910156 212.625 335.589844 215.933594 335.589844 L 221.914062 335.589844 C 239.863281 335.589844 239.863281 344.597656 239.863281 347.558594 C 239.863281 355.414062 230.835938 359.523438 221.914062 359.523438 L 215.933594 359.523438 C 206.035156 359.523438 197.984375 351.472656 197.984375 341.574219 L 197.984375 257.8125 C 197.984375 254.511719 195.308594 251.828125 192 251.828125 C 188.691406 251.828125 186.015625 254.511719 186.015625 257.8125 L 186.015625 341.574219 C 186.015625 351.472656 177.964844 359.523438 168.070312 359.523438 L 162.085938 359.523438 C 153.164062 359.523438 144.136719 355.414062 144.136719 347.558594 C 144.136719 344.597656 144.136719 335.589844 162.085938 335.589844 L 168.070312 335.589844 C 171.378906 335.589844 174.050781 332.910156 174.050781 329.609375 C 174.050781 326.304688 171.378906 323.625 168.070312 323.625 L 167.152344 323.625 L 156.019531 256.824219 C 155.488281 253.570312 152.40625 251.375 149.136719 251.914062 C 145.878906 252.457031 143.675781 255.539062 144.222656 258.800781 L 155.097656 324.082031 C 140.605469 326.085938 132.171875 334.542969 132.171875 347.558594 C 132.171875 361.425781 144.753906 371.488281 162.085938 371.488281 L 168.070312 371.488281 C 177.84375 371.488281 186.539062 366.773438 192 359.507812 C 197.460938 366.773438 206.15625 371.488281 215.929688 371.488281 L 221.914062 371.488281 C 239.253906 371.488281 251.828125 361.425781 251.828125 347.558594 C 251.828125 334.542969 243.394531 326.085938 228.902344 324.082031 Z M 228.902344 324.082031 " fill-opacity="1" fill-rule="nonzero"/></g><g clip-path="url(#b7a35bbcc9)"><path fill="#ffffff" d="M 340.941406 63.683594 C 327.789062 37.375 296.109375 12.507812 275.761719 12.507812 C 264.207031 12.507812 244.328125 30.421875 234.339844 40.1875 C 222.800781 30.296875 208.75 24.476562 192 24.476562 C 175.246094 24.476562 161.199219 30.296875 149.65625 40.1875 C 139.671875 30.421875 119.789062 12.507812 108.238281 12.507812 C 87.890625 12.507812 56.207031 37.375 43.058594 63.683594 C 39.097656 71.589844 36.441406 82.285156 36.441406 90.289062 C 36.441406 106.785156 49.859375 120.203125 66.355469 120.203125 C 81.222656 120.203125 87.875 110.429688 93.214844 102.570312 C 93.867188 101.621094 94.511719 100.664062 95.265625 99.59375 L 119.199219 63.695312 C 121.035156 60.941406 120.292969 57.226562 117.539062 55.394531 C 114.777344 53.554688 111.074219 54.300781 109.242188 57.054688 L 85.398438 92.820312 C 84.695312 93.816406 84.007812 94.828125 83.316406 95.839844 C 77.9375 103.761719 74.492188 108.238281 66.355469 108.238281 C 56.460938 108.238281 48.40625 100.183594 48.40625 90.289062 C 48.40625 84.070312 50.609375 75.332031 53.761719 69.03125 C 65.546875 45.453125 94.042969 24.476562 108.238281 24.476562 C 113.339844 24.476562 128.53125 36.355469 141.195312 48.671875 C 118.71875 74.804688 108.238281 118.558594 108.238281 162.085938 C 108.238281 217.324219 132.503906 239.863281 192 239.863281 C 251.496094 239.863281 275.761719 217.324219 275.761719 162.085938 C 275.761719 118.550781 265.277344 74.804688 242.800781 48.671875 C 255.464844 36.355469 270.652344 24.476562 275.761719 24.476562 C 289.953125 24.476562 318.449219 45.453125 330.242188 69.03125 C 333.390625 75.332031 335.589844 84.070312 335.589844 90.289062 C 335.589844 100.183594 327.539062 108.238281 317.644531 108.238281 C 309.214844 108.238281 305.886719 103.808594 300.273438 95.332031 L 274.757812 57.054688 C 272.925781 54.300781 269.210938 53.554688 266.457031 55.394531 C 263.707031 57.226562 262.964844 60.941406 264.800781 63.695312 L 290.292969 101.9375 C 295.964844 110.5 302.386719 120.203125 317.644531 120.203125 C 334.136719 120.203125 347.558594 106.785156 347.558594 90.289062 C 347.558594 82.285156 344.902344 71.589844 340.941406 63.683594 Z M 263.796875 162.085938 C 263.796875 210.679688 245.003906 227.898438 192 227.898438 C 138.996094 227.898438 120.203125 210.679688 120.203125 162.085938 C 120.203125 99.542969 142.40625 36.441406 192 36.441406 C 241.59375 36.441406 263.796875 99.542969 263.796875 162.085938 Z M 263.796875 162.085938 " fill-opacity="1" fill-rule="nonzero"/></g><path fill="#ffffff" d="M 222.578125 189.257812 C 221.554688 191.253906 217.558594 191.976562 215.929688 192 C 208.925781 192 201.6875 186.035156 199.070312 179.179688 C 208.90625 176.953125 215.929688 170.28125 215.929688 162.085938 C 215.929688 152.019531 205.417969 144.136719 192 144.136719 C 178.578125 144.136719 168.066406 152.019531 168.066406 162.085938 C 168.066406 170.28125 175.089844 176.953125 184.929688 179.179688 C 182.320312 186.035156 175.078125 192 168.109375 192 C 166.390625 191.976562 162.480469 191.25 161.382812 189.195312 C 159.835938 186.273438 156.214844 185.167969 153.296875 186.714844 C 150.375 188.265625 149.261719 191.886719 150.820312 194.804688 C 155.542969 203.707031 166.800781 203.964844 168.066406 203.964844 C 177.359375 203.964844 186.34375 198.660156 192 191.066406 C 197.652344 198.660156 206.640625 203.964844 215.929688 203.964844 C 217.210938 203.964844 228.589844 203.703125 233.214844 194.738281 C 234.730469 191.800781 233.574219 188.195312 230.636719 186.679688 C 227.699219 185.167969 224.097656 186.316406 222.578125 189.257812 Z M 192 168.066406 C 184.808594 168.066406 180.035156 164.464844 180.035156 162.085938 C 180.035156 159.703125 184.808594 156.101562 192 156.101562 C 199.304688 156.101562 203.964844 159.644531 203.964844 162.085938 C 203.964844 164.527344 199.304688 168.066406 192 168.066406 Z M 192 168.066406 " fill-opacity="1" fill-rule="nonzero"/><path fill="#ffffff" d="M 218.921875 120.203125 C 223.871094 120.203125 227.898438 116.175781 227.898438 111.230469 C 227.898438 106.28125 223.871094 102.253906 218.921875 102.253906 C 213.976562 102.253906 209.949219 106.28125 209.949219 111.230469 C 209.949219 116.175781 213.976562 120.203125 218.921875 120.203125 Z M 218.921875 120.203125 " fill-opacity="1" fill-rule="nonzero"/><path fill="#ffffff" d="M 165.074219 120.203125 C 170.023438 120.203125 174.050781 116.175781 174.050781 111.230469 C 174.050781 106.28125 170.023438 102.253906 165.074219 102.253906 C 160.128906 102.253906 156.101562 106.28125 156.101562 111.230469 C 156.101562 116.175781 160.128906 120.203125 165.074219 120.203125 Z M 165.074219 120.203125 " fill-opacity="1" fill-rule="nonzero"/></svg>