<svg xmlns="http://www.w3.org/2000/svg" xmlns:xlink="http://www.w3.org/1999/xlink" width="512" zoomAndPan="magnify" viewBox="0 0 384 383.999986" height="512" preserveAspectRatio="xMidYMid meet" version="1.0"><defs><clipPath id="b58b72b97e"><path d="M 78.226562 140 L 126 140 L 126 201 L 78.226562 201 Z M 78.226562 140 " clip-rule="nonzero"/></clipPath><clipPath id="94e60a8cc7"><path d="M 258 140 L 305.476562 140 L 305.476562 201 L 258 201 Z M 258 140 " clip-rule="nonzero"/></clipPath></defs><path fill="#ffffff" d="M 159.898438 165.898438 C 160.910156 165.898438 161.933594 165.828125 162.9375 165.6875 C 170.90625 164.589844 177.746094 159.375 182.191406 151.003906 C 186.425781 143.035156 187.988281 133.078125 186.589844 122.972656 C 183.882812 103.398438 170.128906 88.0625 155.277344 88.0625 C 154.269531 88.0625 153.242188 88.136719 152.234375 88.277344 C 144.460938 89.355469 137.722656 94.421875 133.261719 102.535156 C 128.824219 110.59375 127.164062 120.707031 128.589844 131.003906 C 131.300781 150.570312 145.054688 165.898438 159.898438 165.898438 Z M 139.835938 106.152344 C 143.128906 100.164062 147.898438 96.453125 153.269531 95.707031 C 153.9375 95.617188 154.613281 95.566406 155.277344 95.566406 C 166.277344 95.566406 176.988281 108.324219 179.15625 124 C 180.339844 132.554688 179.066406 140.894531 175.566406 147.484375 C 172.277344 153.671875 167.429688 157.496094 161.910156 158.257812 C 161.242188 158.347656 160.566406 158.398438 159.898438 158.398438 C 148.90625 158.398438 138.191406 145.648438 136.023438 129.976562 C 134.816406 121.265625 136.171875 112.808594 139.835938 106.152344 Z M 139.835938 106.152344 " fill-opacity="1" fill-rule="nonzero"/><g clip-path="url(#b58b72b97e)"><path fill="#ffffff" d="M 99.058594 140.414062 C 97.515625 140.414062 95.960938 140.605469 94.417969 140.988281 C 88.113281 142.609375 83.136719 147.296875 80.40625 154.1875 C 77.839844 160.667969 77.53125 168.53125 79.535156 176.324219 C 83.210938 190.675781 93.667969 200.699219 104.957031 200.699219 C 106.496094 200.699219 108.046875 200.507812 109.59375 200.121094 C 122.191406 196.882812 128.730469 181.363281 124.480469 164.792969 C 120.804688 150.4375 110.347656 140.414062 99.058594 140.414062 Z M 107.753906 192.847656 C 106.828125 193.078125 105.886719 193.195312 104.957031 193.195312 C 97.09375 193.195312 89.628906 185.492188 86.800781 174.457031 C 85.1875 168.1875 85.394531 161.96875 87.382812 156.953125 C 89.203125 152.351562 92.367188 149.265625 96.257812 148.265625 C 97.183594 148.035156 98.125 147.917969 99.058594 147.917969 C 106.917969 147.917969 114.382812 155.621094 117.210938 166.65625 C 120.417969 179.15625 116.25 190.660156 107.753906 192.847656 Z M 107.753906 192.847656 " fill-opacity="1" fill-rule="nonzero"/></g><path fill="#ffffff" d="M 231.777344 88.277344 C 230.769531 88.136719 229.746094 88.0625 228.730469 88.0625 C 213.878906 88.0625 200.125 103.398438 197.417969 122.972656 C 196.023438 133.078125 197.585938 143.035156 201.820312 151.003906 C 206.269531 159.378906 213.105469 164.59375 221.070312 165.6875 C 222.070312 165.828125 223.085938 165.898438 224.09375 165.898438 C 238.949219 165.898438 252.714844 150.566406 255.425781 130.992188 C 256.847656 120.703125 255.1875 110.597656 250.75 102.535156 C 246.277344 94.40625 239.535156 89.339844 231.777344 88.277344 Z M 247.992188 129.964844 C 245.78125 145.90625 235.285156 158.394531 224.09375 158.394531 C 223.425781 158.394531 222.753906 158.347656 222.09375 158.257812 C 216.582031 157.496094 211.734375 153.671875 208.445312 147.484375 C 204.945312 140.898438 203.667969 132.558594 204.851562 124 C 207.019531 108.324219 217.730469 95.570312 228.726562 95.570312 C 229.398438 95.570312 230.074219 95.617188 230.746094 95.710938 C 236.105469 96.445312 240.875 100.152344 244.175781 106.152344 C 247.835938 112.808594 249.191406 121.265625 247.992188 129.964844 Z M 247.992188 129.964844 " fill-opacity="1" fill-rule="nonzero"/><g clip-path="url(#94e60a8cc7)"><path fill="#ffffff" d="M 289.566406 140.984375 C 288.050781 140.605469 286.496094 140.414062 284.953125 140.414062 C 273.664062 140.414062 263.207031 150.4375 259.53125 164.792969 C 255.285156 181.363281 261.820312 196.882812 274.441406 200.128906 C 275.960938 200.507812 277.511719 200.699219 279.046875 200.699219 C 279.046875 200.699219 279.066406 200.699219 279.070312 200.699219 C 290.347656 200.699219 300.796875 190.675781 304.476562 176.324219 C 308.726562 159.746094 302.1875 144.226562 289.566406 140.984375 Z M 297.207031 174.460938 C 294.378906 185.492188 286.921875 193.195312 279.070312 193.195312 L 279.050781 193.195312 C 278.121094 193.195312 277.183594 193.078125 276.285156 192.855469 C 267.761719 190.664062 263.597656 179.152344 266.800781 166.65625 C 269.625 155.621094 277.089844 147.914062 284.953125 147.914062 C 285.886719 147.914062 286.828125 148.03125 287.726562 148.257812 C 296.246094 150.449219 300.410156 161.957031 297.207031 174.460938 Z M 297.207031 174.460938 " fill-opacity="1" fill-rule="nonzero"/></g><path fill="#ffffff" d="M 219.617188 181.328125 C 208.949219 181.328125 199.304688 186.496094 191.992188 196.003906 C 184.6875 186.496094 175.042969 181.328125 164.378906 181.328125 C 148.277344 181.328125 134.03125 193.113281 129.726562 209.980469 C 127.425781 219.015625 126.980469 233.457031 137.941406 250.933594 C 148.082031 267.109375 165.664062 282.09375 190.195312 295.476562 C 190.753906 295.78125 191.375 295.933594 191.992188 295.933594 C 192.609375 295.933594 193.226562 295.78125 193.789062 295.476562 C 218.328125 282.09375 235.914062 267.109375 246.058594 250.933594 C 257.023438 233.457031 256.582031 219.015625 254.277344 209.980469 C 249.976562 193.113281 235.722656 181.328125 219.617188 181.328125 Z M 191.992188 287.898438 C 131.582031 254.273438 134.601562 221.234375 137 211.835938 C 140.453125 198.292969 151.710938 188.835938 164.378906 188.835938 C 173.960938 188.835938 182.625 194.433594 188.78125 204.597656 C 189.460938 205.71875 190.679688 206.40625 191.992188 206.40625 C 193.304688 206.40625 194.519531 205.722656 195.199219 204.597656 C 201.359375 194.433594 210.03125 188.832031 219.617188 188.832031 C 232.289062 188.832031 243.550781 198.292969 247.003906 211.835938 C 249.398438 221.230469 252.417969 254.273438 191.992188 287.898438 Z M 191.992188 287.898438 " fill-opacity="1" fill-rule="nonzero"/></svg>